<svg xmlns="http://www.w3.org/2000/svg" xmlns:xlink="http://www.w3.org/1999/xlink" version="1.1" x="0px" y="0px" viewBox="0 0 48 60" enable-background="new 0 0 48 48" xml:space="preserve"><g><path fill="#000000" d="M25,48H0V0h25V48z M2,46h21V2H2V46z"/><path fill="#000000" d="M48,48H23V17.8h25V48z M25,46h21V19.8H25V46z"/><rect x="4.7" y="5.3" fill="#000000" width="2" height="6.8"/><rect x="4.7" y="15.4" fill="#000000" width="2" height="6.8"/><rect x="4.7" y="25.5" fill="#000000" width="2" height="6.8"/><rect x="4.7" y="35.6" fill="#000000" width="2" height="6.7"/><rect x="18" y="5.3" fill="#000000" width="2" height="6.8"/><rect x="18" y="15.4" fill="#000000" width="2" height="6.8"/><rect x="18" y="25.5" fill="#000000" width="2" height="6.8"/><rect x="11.5" y="5.3" fill="#000000" width="2" height="6.8"/><rect x="11.5" y="15.4" fill="#000000" width="2" height="6.8"/><rect x="11.5" y="25.5" fill="#000000" width="2" height="6.8"/><rect x="27.9" y="29.9" fill="#000000" width="2" height="3.9"/><rect x="41.1" y="29.9" fill="#000000" width="2" height="3.9"/><rect x="34.6" y="29.9" fill="#000000" width="2" height="3.9"/><rect x="27.9" y="23" fill="#000000" width="2" height="3.9"/><rect x="41.1" y="23" fill="#000000" width="2" height="3.9"/><rect x="34.6" y="23" fill="#000000" width="2" height="3.9"/><rect x="18" y="35.6" fill="#000000" width="2" height="6.7"/><path fill="#000000" d="M16.3,48H8.6V34.6h7.7V48z M10.6,46h3.7v-9.4h-3.7V46z"/><path fill="#000000" d="M42.7,48H28.4V35.4h14.3V48z M30.4,46h10.3v-8.6H30.4V46z"/></g><text x="0" y="63" fill="#000000" font-size="5px" font-weight="bold" font-family="'Helvetica Neue', Helvetica, Arial-Unicode, Arial, Sans-serif">Created by Creative Stall</text><text x="0" y="68" fill="#000000" font-size="5px" font-weight="bold" font-family="'Helvetica Neue', Helvetica, Arial-Unicode, Arial, Sans-serif">from the Noun Project</text></svg>