<svg xmlns="http://www.w3.org/2000/svg" xmlns:xlink="http://www.w3.org/1999/xlink" version="1.1" x="0px" y="0px" viewBox="0 0 64 80" enable-background="new 0 0 64 64" xml:space="preserve"><g><path d="M32,10.784L2,28.821h60L32,10.784z M32,11.951l26.396,15.87H5.604L32,11.951z"/><polygon points="32,14.285 12.813,25.821 51.188,25.821  "/><path d="M4.248,53.217h55.504V30.184H4.248V53.217z M52.932,33.582h3.925v7.313h-3.925V33.582z M52.932,43.02h3.925v7.314h-3.925   V43.02z M45.301,33.582h3.924v7.313h-3.924V33.582z M45.301,43.02h3.924v7.314h-3.924V43.02z M37.668,33.582h3.926v7.313h-3.926   V33.582z M30.038,33.582h3.924v7.313h-3.924V33.582z M22.406,33.582h3.926v7.313h-3.926V33.582z M22.406,43.02h3.195h0.73h11.336   h0.73h3.195v9.592h-3.195h-0.73H26.332h-0.73h-3.195V43.02z M14.775,33.582h3.924v7.313h-3.924V33.582z M14.775,43.02h3.924v7.314   h-3.924V43.02z M7.144,33.582h3.925v7.313H7.144V33.582z M7.144,43.02h3.925v7.314H7.144V43.02z"/></g><text x="0" y="79" fill="#000000" font-size="5px" font-weight="bold" font-family="'Helvetica Neue', Helvetica, Arial-Unicode, Arial, Sans-serif">Created by Creative Stall</text><text x="0" y="84" fill="#000000" font-size="5px" font-weight="bold" font-family="'Helvetica Neue', Helvetica, Arial-Unicode, Arial, Sans-serif">from the Noun Project</text></svg>